<svg width="1824" height="658" viewBox="0 0 1824 658" fill="none" xmlns="http://www.w3.org/2000/svg">
<path d="M1796.07 518.909C1801.49 470.744 1810.52 422.912 1816.07 374.757C1818.99 349.576 1821.53 324.35 1823.99 299.113C1823.58 291.7 1823.08 284.275 1822.48 276.862C1818.51 244.955 1814.66 213.037 1811.41 181.064C1807.93 146.749 1805.25 112.312 1804.3 77.8414C1760.28 97.9177 1714.51 119.703 1646.05 129.558C1429.23 160.788 1362.27 18.0454 1093.82 20.7422C886.856 22.8175 879.706 108.15 661.682 115.164C435.374 122.455 393.701 32.0732 126.326 6.57002C108.623 4.87202 77.9645 1.95325 39.0482 0C38.8108 48.3984 36.8188 96.7857 33.7187 145.117C31.8322 174.494 29.5236 203.859 26.9248 233.202C24.326 262.557 20.5531 291.722 17.2683 321.021C10.1842 384.235 8.56158 447.815 0 510.919C124.506 541.05 191.824 602.988 359.547 601.989C559.854 600.801 573.019 511.795 801.122 502.573C974.227 495.57 976.166 546.443 1236.05 574.222C1510.44 603.554 1514.86 547.553 1792.05 565.099C1792.92 549.595 1794.34 534.158 1796.06 518.92L1796.07 518.909Z" fill="#F17C65"/>
<mask id="mask0_307_429" style="mask-type:luminance" maskUnits="userSpaceOnUse" x="1690" y="445" width="72" height="213">
<path d="M1739.79 447.968C1712.93 469.462 1700.33 502.225 1703.58 536.235C1706.63 568.133 1725.11 612.852 1694.33 636.941C1681.71 646.81 1699.47 664.336 1711.94 654.568C1736.97 634.982 1738.8 601.354 1734.41 572.279C1731.33 551.955 1725.13 531.173 1728.99 510.518C1732.42 492.152 1743.07 477.068 1757.4 465.57C1769.93 455.548 1752.19 438.022 1739.79 447.943V447.968Z" fill="white"/>
</mask>
<g mask="url(#mask0_307_429)">
<path d="M1727.16 547.86C1714.97 547.86 1714.97 566.81 1727.16 566.81C1739.36 566.81 1739.36 547.86 1727.16 547.86Z" fill="black"/>
<path d="M1711.99 510.34L1710.52 508.432C1709.35 507.262 1707.95 506.448 1706.35 505.99L1704.52 505.38C1703.25 504.973 1702.01 504.922 1700.74 505.202C1699.47 505.252 1698.3 505.634 1697.21 506.321C1696.11 506.906 1695.22 507.72 1694.54 508.763C1693.7 509.678 1693.14 510.747 1692.84 511.993C1692.73 512.833 1692.61 513.672 1692.51 514.512C1692.51 516.216 1692.94 517.818 1693.8 519.294C1694.28 519.93 1694.79 520.566 1695.27 521.202C1696.47 522.372 1697.84 523.186 1699.44 523.643C1700.05 523.847 1700.66 524.051 1701.27 524.254C1702.54 524.661 1703.79 524.712 1705.06 524.432C1706.33 524.381 1707.5 524 1708.59 523.313C1709.68 522.728 1710.57 521.914 1711.26 520.871C1712.1 519.955 1712.66 518.887 1712.96 517.64C1713.06 516.801 1713.19 515.961 1713.29 515.122C1713.29 513.418 1712.86 511.815 1711.99 510.34Z" fill="black"/>
<path d="M1740.12 485.564C1739.74 484.394 1739.08 483.377 1738.17 482.512C1737.53 482.028 1736.9 481.52 1736.26 481.036C1734.79 480.171 1733.19 479.739 1731.48 479.739C1730.65 479.841 1729.81 479.968 1728.97 480.07C1727.37 480.528 1725.97 481.342 1724.8 482.512L1724.19 483.122C1723.28 483.987 1722.62 485.005 1722.24 486.175C1721.65 487.294 1721.37 488.515 1721.42 489.838C1721.37 491.135 1721.65 492.356 1722.24 493.5C1722.62 494.671 1723.28 495.688 1724.19 496.553L1726.1 498.028C1727.57 498.893 1729.17 499.326 1730.87 499.326C1731.71 499.224 1732.55 499.097 1733.39 498.995C1734.99 498.537 1736.39 497.723 1737.56 496.553L1738.17 495.942C1739.08 495.078 1739.74 494.06 1740.12 492.89C1740.71 491.771 1740.99 490.55 1740.94 489.227C1740.99 487.93 1740.71 486.709 1740.12 485.564Z" fill="black"/>
<path d="M1734.61 608.934C1734.23 607.764 1733.57 606.747 1732.65 605.882C1732.02 605.399 1731.38 604.89 1730.75 604.407C1729.27 603.542 1727.67 603.109 1725.97 603.109C1725.13 603.211 1724.29 603.338 1723.45 603.44C1721.85 603.898 1720.46 604.712 1719.29 605.882L1718.68 606.492C1717.76 607.357 1717.1 608.375 1716.72 609.545C1716.14 610.664 1715.86 611.885 1715.91 613.208C1715.86 614.505 1716.14 615.726 1716.72 616.871C1717.1 618.041 1717.76 619.058 1718.68 619.923L1720.58 621.399C1722.06 622.263 1723.66 622.696 1725.36 622.696C1726.2 622.594 1727.04 622.467 1727.88 622.365C1729.48 621.907 1730.87 621.093 1732.04 619.923L1732.65 619.313C1733.57 618.448 1734.23 617.43 1734.61 616.26C1735.19 615.141 1735.47 613.92 1735.42 612.597C1735.47 611.3 1735.19 610.079 1734.61 608.934Z" fill="black"/>
<path d="M1762.94 448.706C1762.46 447.205 1761.67 445.933 1760.53 444.839C1759.74 444.203 1758.95 443.593 1758.16 442.957C1756.34 441.863 1754.38 441.329 1752.24 441.303C1751.2 441.456 1750.16 441.583 1749.12 441.736C1747.14 442.296 1745.41 443.338 1743.96 444.839C1743.71 445.094 1743.45 445.348 1743.2 445.628C1742.05 446.722 1741.24 448.019 1740.78 449.494C1740.05 450.919 1739.72 452.47 1739.77 454.124C1739.72 455.777 1740.05 457.329 1740.78 458.753C1741.27 460.254 1742.05 461.526 1743.2 462.62C1743.99 463.256 1744.77 463.866 1745.56 464.502C1747.39 465.596 1749.35 466.13 1751.48 466.156C1752.52 466.003 1753.57 465.876 1754.61 465.723C1756.59 465.163 1758.32 464.121 1759.77 462.62L1760.53 461.831C1761.67 460.737 1762.48 459.44 1762.94 457.965C1763.68 456.54 1764.01 454.989 1763.96 453.335C1764.01 451.682 1763.68 450.13 1762.94 448.706Z" fill="black"/>
<path d="M1717.08 651.389C1715.04 644.139 1707.09 640.654 1700.2 643.198C1694.54 645.284 1689.74 650.015 1688.57 656.095C1688.08 658.588 1688.46 661.284 1689.66 663.471C1690.07 665.049 1690.85 666.575 1691.97 668.025C1694.08 670.67 1698.04 672.018 1701.32 671.866C1705.16 671.688 1708.18 669.882 1711 667.414C1715.6 663.421 1718.8 657.646 1717.05 651.414L1717.08 651.389Z" fill="black"/>
</g>
<mask id="mask1_307_429" style="mask-type:luminance" maskUnits="userSpaceOnUse" x="75" y="38" width="72" height="213">
<path d="M124.793 40.968C97.935 62.4624 85.3316 95.2254 88.5841 129.235C91.6333 161.133 110.106 205.852 79.3348 229.941C66.706 239.81 84.4676 257.336 96.944 247.568C121.973 227.982 123.802 194.354 119.407 165.279C116.332 144.955 110.132 124.173 113.994 103.518C117.425 85.1523 128.071 70.0681 142.403 58.5705C154.93 48.5482 137.194 31.0221 124.793 40.9426V40.968Z" fill="white"/>
</mask>
<g mask="url(#mask1_307_429)">
<path d="M112.165 140.86C99.9679 140.86 99.9679 159.81 112.165 159.81C124.362 159.81 124.362 140.86 112.165 140.86Z" fill="black"/>
<path d="M96.9949 103.34L95.5211 101.432C94.3523 100.262 92.9547 99.448 91.3539 98.9901L89.5244 98.3797C88.2538 97.9727 87.0087 97.9218 85.7382 98.2016C84.4677 98.2525 83.2989 98.634 82.2062 99.3208C81.1136 99.9059 80.2243 100.72 79.5382 101.763C78.6996 102.679 78.1406 103.747 77.8357 104.993C77.7341 105.833 77.607 106.672 77.5054 107.512C77.5054 109.216 77.9373 110.818 78.8013 112.294C79.2841 112.93 79.7923 113.566 80.2751 114.202C81.4693 115.372 82.8415 116.186 84.4423 116.644C85.0522 116.847 85.662 117.051 86.2719 117.254C87.5424 117.661 88.7875 117.712 90.058 117.432C91.3285 117.381 92.4973 117 93.59 116.313C94.6826 115.728 95.572 114.914 96.258 113.871C97.0966 112.955 97.6556 111.887 97.9605 110.64C98.0622 109.801 98.1892 108.961 98.2908 108.122C98.2908 106.418 97.8589 104.815 96.9949 103.34Z" fill="black"/>
<path d="M125.124 78.5641C124.743 77.394 124.082 76.3765 123.167 75.5117C122.532 75.0283 121.897 74.5196 121.262 74.0363C119.788 73.1714 118.187 72.739 116.485 72.739C115.646 72.8408 114.807 72.9679 113.969 73.0697C112.368 73.5275 110.971 74.3415 109.802 75.5117L109.192 76.1222C108.277 76.987 107.616 78.0045 107.235 79.1746C106.651 80.2938 106.371 81.5148 106.422 82.8376C106.371 84.1349 106.651 85.3558 107.235 86.5005C107.616 87.6706 108.277 88.6881 109.192 89.553L111.098 91.0283C112.571 91.8932 114.172 92.3256 115.875 92.3256C116.713 92.2239 117.552 92.0967 118.39 91.9949C119.991 91.537 121.389 90.7231 122.558 89.553L123.167 88.9425C124.082 88.0776 124.743 87.0601 125.124 85.89C125.708 84.7708 125.988 83.5498 125.937 82.2271C125.988 80.9298 125.708 79.7088 125.124 78.5641Z" fill="black"/>
<path d="M119.61 201.934C119.229 200.764 118.568 199.747 117.653 198.882C117.018 198.399 116.383 197.89 115.747 197.407C114.274 196.542 112.673 196.109 110.97 196.109C110.132 196.211 109.293 196.338 108.455 196.44C106.854 196.898 105.456 197.712 104.288 198.882L103.678 199.492C102.763 200.357 102.102 201.375 101.721 202.545C101.137 203.664 100.857 204.885 100.908 206.208C100.857 207.505 101.137 208.726 101.721 209.871C102.102 211.041 102.763 212.058 103.678 212.923L105.583 214.399C107.057 215.263 108.658 215.696 110.361 215.696C111.199 215.594 112.038 215.467 112.876 215.365C114.477 214.907 115.875 214.093 117.043 212.923L117.653 212.313C118.568 211.448 119.229 210.43 119.61 209.26C120.194 208.141 120.474 206.92 120.423 205.597C120.474 204.3 120.194 203.079 119.61 201.934Z" fill="black"/>
<path d="M147.942 41.7056C147.459 40.2049 146.672 38.933 145.528 37.8392C144.74 37.2033 143.953 36.5928 143.165 35.9569C141.335 34.8631 139.379 34.3289 137.244 34.3035C136.203 34.4561 135.161 34.5833 134.119 34.7359C132.137 35.2955 130.409 36.3384 128.961 37.8392C128.707 38.0936 128.452 38.348 128.198 38.6278C127.055 39.7216 126.242 41.0189 125.784 42.4942C125.048 43.9187 124.717 45.4704 124.768 47.1238C124.717 48.7772 125.048 50.3289 125.784 51.7534C126.267 53.2541 127.055 54.526 128.198 55.6198C128.986 56.2557 129.774 56.8662 130.562 57.5021C132.391 58.5959 134.348 59.1301 136.482 59.1555C137.524 59.0029 138.566 58.8757 139.608 58.7231C141.59 58.1635 143.317 57.1206 144.766 55.6198L145.528 54.8312C146.672 53.7374 147.485 52.4402 147.942 50.9648C148.679 49.5403 149.009 47.9886 148.958 46.3352C149.009 44.6818 148.679 43.1301 147.942 41.7056Z" fill="black"/>
<path d="M102.077 244.389C100.044 237.139 92.0907 233.654 85.2046 236.198C79.5381 238.284 74.7356 243.015 73.5668 249.095C73.084 251.588 73.4651 254.284 74.6594 256.471C75.0659 258.049 75.8537 259.575 76.9717 261.025C79.0807 263.67 83.0447 265.018 86.3226 264.866C90.1596 264.688 93.1834 262.882 96.0039 260.414C100.603 256.421 103.805 250.646 102.051 244.414L102.077 244.389Z" fill="black"/>
</g>
</svg>
