<svg width="1728" height="824" viewBox="0 0 1728 824" fill="none" xmlns="http://www.w3.org/2000/svg">
<path d="M-103.812 114.812C-34.9692 63.8799 67.6307 6.37114 194.018 6.46054C306.936 6.54362 344.169 52.5281 479.305 63.2038C619.393 74.2767 623.356 28.3438 802.895 13.3104C1025.33 -5.32585 1024.5 64.7368 1228.83 37.3985C1335.94 23.0647 1394.91 -4.05352 1528.5 1.06221C1626.45 4.80674 1675.43 6.6901 1716.29 40.0402C1880.07 173.738 1869.52 671.886 1746.23 741.099C1715.87 758.149 1696.11 739.388 1632.7 720.67C1436.77 662.828 1368.98 766.192 1125.11 762.77C949.466 760.309 969.937 706.489 820.741 717.807C635.148 731.89 620.611 813.877 469.362 804.945C308.647 795.443 273.995 699.871 139.138 728.183C18.7464 753.456 -16.4958 842.846 -63.8847 819.943C-115.251 795.121 -155.885 650.466 -103.787 114.811L-103.812 114.812Z" fill="#A4D2FF"/>
</svg>
