<svg width="800" height="429" viewBox="0 0 800 429" fill="none" xmlns="http://www.w3.org/2000/svg">
<g clip-path="url(#clip0_214_432)">
<path d="M240.201 164.498C240.022 166.619 238.55 168.148 236.91 167.917C235.27 167.686 234.087 165.782 234.266 163.662C234.445 161.542 235.917 160.012 237.557 160.243C239.196 160.474 240.379 162.378 240.201 164.498Z" fill="#FFBE64"/>
<path d="M136.041 410.655C135.863 412.775 134.39 414.304 132.75 414.074C131.111 413.843 129.928 411.939 130.106 409.818C130.285 407.698 131.757 406.169 133.397 406.4C135.037 406.631 136.22 408.535 136.041 410.655Z" fill="#FFBE64"/>
<path d="M211.81 327.857C211.631 329.978 210.159 331.507 208.519 331.276C206.88 331.046 205.697 329.141 205.876 327.02C206.054 324.9 207.527 323.371 209.167 323.602C210.806 323.833 211.989 325.737 211.81 327.857Z" fill="#FFBE64"/>
<path d="M153.198 101.636C153.02 103.757 151.547 105.286 149.908 105.055C148.268 104.824 147.085 102.92 147.263 100.8C147.442 98.6794 148.914 97.1503 150.555 97.3811C152.195 97.612 153.377 99.516 153.198 101.636Z" fill="#FFBE64"/>
<path d="M241.606 78.3697C241.517 79.3647 240.825 80.0862 240.066 79.9704C239.297 79.8554 238.739 78.9609 238.828 77.9796C238.918 76.9846 239.609 76.263 240.368 76.3788C241.137 76.4939 241.695 77.3884 241.606 78.3697Z" fill="#FFBE64"/>
<path d="M292.108 120.345C292.018 121.34 291.327 122.062 290.568 121.946C289.798 121.831 289.24 120.937 289.33 119.956C289.419 118.96 290.111 118.239 290.869 118.354C291.639 118.47 292.197 119.364 292.108 120.345Z" fill="#FFBE64"/>
<path d="M137.458 320.934C137.369 321.929 136.677 322.65 135.918 322.535C135.149 322.42 134.591 321.525 134.68 320.544C134.77 319.549 135.461 318.828 136.22 318.943C136.989 319.059 137.547 319.952 137.458 320.934Z" fill="#FFBE64"/>
<path d="M165.102 210.441C165.012 211.436 164.321 212.158 163.562 212.042C162.793 211.927 162.235 211.033 162.324 210.052C162.413 209.056 163.105 208.335 163.864 208.45C164.633 208.566 165.191 209.461 165.102 210.441Z" fill="#FFBE64"/>
<path d="M255.383 417.16C255.295 418.156 254.603 418.876 253.844 418.761C253.074 418.646 252.517 417.752 252.606 416.771C252.695 415.776 253.387 415.054 254.145 415.17C254.915 415.285 255.472 416.179 255.383 417.16Z" fill="#FFBE64"/>
<path d="M244.674 261.736C244.585 262.731 243.893 263.452 243.134 263.336C242.365 263.221 241.807 262.327 241.896 261.345C241.985 260.35 242.677 259.629 243.436 259.745C244.205 259.86 244.763 260.754 244.674 261.736Z" fill="#FFBE64"/>
<path d="M527.456 160.185C527.445 162.321 528.772 164.066 530.413 164.08C532.063 164.095 533.413 162.378 533.424 160.258C533.436 158.123 532.108 156.377 530.468 156.363C528.817 156.348 527.467 158.065 527.456 160.185Z" fill="#FFBE64"/>
<path d="M371.836 400.312C371.825 402.447 373.153 404.193 374.792 404.207C376.443 404.221 377.793 402.505 377.804 400.385C377.816 398.25 376.488 396.504 374.848 396.49C373.197 396.475 371.847 398.192 371.836 400.312Z" fill="#FFBE64"/>
<path d="M325.407 62.5315C325.396 64.6663 326.724 66.4118 328.363 66.4255C330.014 66.44 331.364 64.7234 331.376 62.6031C331.386 60.4683 330.059 58.7228 328.419 58.7091C326.768 58.6946 325.418 60.4111 325.407 62.5315Z" fill="#FFBE64"/>
<path d="M588.6 420.464C588.589 422.599 589.917 424.345 591.557 424.359C593.208 424.374 594.557 422.657 594.569 420.536C594.58 418.401 593.252 416.656 591.612 416.642C589.961 416.627 588.612 418.344 588.6 420.464Z" fill="#FFBE64"/>
<path d="M540.798 326.733C540.787 328.867 542.114 330.613 543.755 330.627C545.405 330.642 546.756 328.925 546.766 326.805C546.778 324.67 545.45 322.925 543.811 322.91C542.16 322.896 540.81 324.612 540.798 326.733Z" fill="#FFBE64"/>
<path d="M599.655 110.998C599.644 113.133 600.972 114.879 602.611 114.892C604.263 114.907 605.612 113.19 605.624 111.07C605.634 108.935 604.307 107.19 602.667 107.176C601.016 107.162 599.666 108.878 599.655 110.998Z" fill="#FFBE64"/>
<path d="M533.893 74.4459C533.893 75.441 534.507 76.2638 535.276 76.2783C536.046 76.2783 536.682 75.4844 536.693 74.4894C536.693 73.4943 536.079 72.6715 535.31 72.6578C534.54 72.6578 533.905 73.4509 533.893 74.4459Z" fill="#FFBE64"/>
<path d="M415.209 68.2144C415.209 69.2102 415.823 70.0323 416.592 70.0468C417.362 70.0468 417.998 69.2529 418.009 68.2578C418.009 67.2628 417.395 66.44 416.626 66.4263C415.856 66.4263 415.22 67.2194 415.209 68.2144Z" fill="#FFBE64"/>
<path d="M595.36 331.161C595.36 332.156 595.974 332.979 596.744 332.993C597.514 332.993 598.15 332.2 598.16 331.204C598.16 330.209 597.547 329.387 596.777 329.372C596.008 329.372 595.372 330.166 595.36 331.161Z" fill="#FFBE64"/>
<path d="M577.946 217.221C577.946 218.216 578.56 219.038 579.33 219.053C580.099 219.053 580.735 218.26 580.746 217.265C580.746 216.269 580.133 215.447 579.363 215.432C578.593 215.432 577.957 216.226 577.946 217.221Z" fill="#FFBE64"/>
<path d="M290.735 372.199C290.735 373.194 291.349 374.017 292.118 374.031C292.888 374.031 293.524 373.238 293.535 372.243C293.535 371.247 292.922 370.425 292.152 370.41C291.382 370.41 290.746 371.204 290.735 372.199Z" fill="#FFBE64"/>
<path d="M514.17 256.066C514.17 257.062 514.784 257.884 515.554 257.899C516.323 257.899 516.959 257.105 516.97 256.11C516.97 255.115 516.357 254.293 515.587 254.278C514.818 254.278 514.182 255.071 514.17 256.066Z" fill="#FFBE64"/>
<path d="M112.562 116.777L88.8037 75.3967H112.846L123.637 95.7087L134.428 75.3967H158.187L134.523 116.588V142.474H112.562V116.777ZM150.815 122.445V113.375C150.815 99.8656 159.524 91.9298 175.142 91.9298C191.044 91.9298 199.563 99.8656 199.563 113.375V122.445C199.563 135.955 191.044 143.891 175.142 143.891C159.524 143.891 150.815 135.955 150.815 122.445ZM175.142 109.408C172.775 109.408 171.545 110.447 171.545 112.525V123.295C171.545 125.279 172.775 126.319 175.142 126.319C177.603 126.319 178.833 125.279 178.833 123.295V112.525C178.833 110.447 177.603 109.408 175.142 109.408ZM207.48 122.728V93.3469H228.304V121.784C228.304 124.429 229.346 125.279 231.05 125.279C233.037 125.279 233.795 124.429 233.795 121.784V93.3469H254.619L254.524 142.19L239.663 142.474C239.663 142.474 241.84 129.436 242.503 122.823L241.746 122.728C240.515 131.231 236.729 143.891 224.992 143.891C212.402 143.891 207.48 136.333 207.48 122.728ZM284.686 142.474H263.862V100.999C263.862 97.5982 263.956 93.4414 263.862 93.3469H275.599C275.599 93.3469 272.475 104.023 271.529 109.313L272.097 109.597C275.883 98.1651 276.83 91.9298 288.094 91.9298H294.72V109.597H284.686V142.474ZM320.884 75.3967H342.844V99.0154H359.693V75.3967H381.653V142.474H359.693V117.91H342.844V142.474H320.884V75.3967ZM390.711 122.445V113.375C390.711 99.8656 399.419 91.9298 415.037 91.9298C430.94 91.9298 439.459 99.8656 439.459 113.375V122.445C439.459 135.955 430.94 143.891 415.037 143.891C399.419 143.891 390.711 135.955 390.711 122.445ZM415.037 109.408C412.671 109.408 411.44 110.447 411.44 112.525V123.295C411.44 125.279 412.671 126.319 415.037 126.319C417.498 126.319 418.729 125.279 418.729 123.295V112.525C418.729 110.447 417.498 109.408 415.037 109.408ZM447.659 93.3469H461.479C459.87 97.6927 458.45 103.267 457.693 110.541H457.977C460.154 99.0154 465.55 91.9298 472.838 91.9298C477.476 91.9298 482.02 94.3861 483.534 100.621C486.279 93.8193 492.053 91.9298 496.692 91.9298C512.121 91.9298 518.084 99.0154 518.084 113.092V142.474H497.259V113.659C497.259 111.392 496.692 110.541 495.272 110.541C493.947 110.541 493.284 111.58 493.284 113.187V142.474H472.459V113.659C472.459 111.392 471.986 110.541 470.377 110.541C468.957 110.541 468.484 111.203 468.484 113.47V142.474H447.659V93.3469ZM550.526 91.9298C564.156 91.9298 575.137 98.7319 575.137 113.375V123.106H546.74V124.335C546.74 127.547 548.065 129.153 550.715 129.153C553.082 129.153 555.164 128.114 556.773 126.035L557.057 125.657L573.149 132.27C572.676 133.404 572.297 134.065 572.297 134.065C568.795 140.584 561.506 143.891 550.431 143.891C533.677 143.891 525.915 134.916 525.915 121.217V114.509C525.915 99.8656 534.624 91.9298 550.526 91.9298ZM546.74 110.541H554.312V109.691C554.312 106.762 553.46 105.534 550.526 105.534C547.781 105.534 546.74 106.762 546.74 109.691V110.541ZM600.115 122.445V113.375C600.115 99.8656 608.824 91.9298 624.442 91.9298C640.344 91.9298 648.863 99.8656 648.863 113.375V122.445C648.863 135.955 640.344 143.891 624.442 143.891C608.824 143.891 600.115 135.955 600.115 122.445ZM624.442 109.408C622.075 109.408 620.845 110.447 620.845 112.525V123.295C620.845 125.279 622.075 126.319 624.442 126.319C626.903 126.319 628.133 125.279 628.133 123.295V112.525C628.133 110.447 626.903 109.408 624.442 109.408ZM655.09 93.3469H660.959V93.1579C660.959 79.4591 668.626 72.5625 683.96 72.5625H690.018V88.5287H686.137C683.203 88.5287 681.783 90.0403 681.783 92.969V93.3469H690.018V109.313H681.783V142.474H660.959V109.313H655.09V93.3469Z" fill="black"/>
<g filter="url(#filter0_d_214_432)">
<mask id="mask0_214_432" style="mask-type:alpha" maskUnits="userSpaceOnUse" x="232" y="177" width="336" height="71">
<path d="M232.391 220.11V204.994C232.391 187.989 243.371 177.597 262.587 177.597C277.448 177.597 287.103 183.36 291.267 194.791L292.309 197.625L271.579 204.9L270.348 201.782C268.834 198.003 266.941 196.586 262.587 196.586C256.15 196.586 254.351 198.854 254.351 204.9V220.205C254.351 226.251 256.15 228.519 262.587 228.519C267.887 228.519 270.538 227.007 270.538 223.889V223.511H259.652V206.978H292.782V223.228C292.782 240.422 277.826 247.508 262.587 247.508C243.371 247.508 232.391 237.116 232.391 220.11ZM317.594 246.091H294.593L318.351 179.014H340.217L364.07 246.091H340.406L337.945 236.927H320.15L317.594 246.091ZM329.142 204.144L324.883 219.732H333.307L329.142 204.144ZM369.665 179.014H391.152L405.256 214.442L419.454 179.014H440.847V246.091H420.401V217.465L412.545 246.091H398.062L390.111 217.465V246.091H369.665V179.014ZM451.83 179.014H501.43V197.909H473.79V204.711H499.915V220.772H473.79V227.102H502.093V246.091H451.83V179.014ZM508.604 233.431L507.752 230.975L526.589 223.039L528.387 226.062C529.618 228.33 532.647 229.463 537.474 229.463C542.775 229.463 545.425 228.708 545.425 226.157C545.52 223.606 542.586 222.85 536.054 221.811C522.045 219.544 509.077 216.426 509.456 198.759C509.645 185.911 520.72 177.597 538.894 177.597C553.282 177.597 561.896 181.281 566.155 190.256L567.575 193.091L548.076 201.215L546.751 198.57C545.52 196.208 542.775 194.98 538.61 194.98C534.067 194.98 531.795 196.114 531.795 198.287C531.7 201.027 534.824 201.877 542.396 202.916C547.129 203.577 552.998 204.428 557.068 206.601C564.83 210.663 567.954 217.276 567.859 226.062C567.575 240.706 553.093 247.508 536.906 247.508C522.803 247.508 512.012 242.69 508.604 233.431Z" fill="#EC6D48"/>
</mask>
<g mask="url(#mask0_214_432)">
<path d="M592.366 68.5702H208.397V370.279H592.366V68.5702Z" fill="#EC6D48"/>
<path d="M244.682 188.736C242.179 188.736 240.142 190.468 240.142 192.597C240.142 194.726 242.179 196.458 244.682 196.458C247.185 196.458 249.221 194.726 249.221 192.597C249.221 190.468 247.185 188.736 244.682 188.736Z" fill="#C05435"/>
<path d="M271.084 188.736C268.581 188.736 266.544 190.468 266.544 192.597C266.544 194.726 268.581 196.458 271.084 196.458C273.587 196.458 275.623 194.726 275.623 192.597C275.623 190.468 273.587 188.736 271.084 188.736Z" fill="#C05435"/>
<path d="M297.485 188.736C294.983 188.736 292.946 190.468 292.946 192.597C292.946 194.726 294.983 196.458 297.485 196.458C299.988 196.458 302.025 194.726 302.025 192.597C302.025 190.468 299.988 188.736 297.485 188.736Z" fill="#C05435"/>
<path d="M323.888 196.458C326.394 196.458 328.427 194.73 328.427 192.597C328.427 190.464 326.394 188.736 323.888 188.736C321.381 188.736 319.349 190.464 319.349 192.597C319.349 194.73 321.381 196.458 323.888 196.458Z" fill="#C05435"/>
<path d="M350.29 196.458C352.797 196.458 354.83 194.73 354.83 192.597C354.83 190.464 352.797 188.736 350.29 188.736C347.783 188.736 345.751 190.464 345.751 192.597C345.751 194.73 347.783 196.458 350.29 196.458Z" fill="#C05435"/>
<path d="M376.693 188.736C374.189 188.736 372.153 190.468 372.153 192.597C372.153 194.726 374.189 196.458 376.693 196.458C379.195 196.458 381.231 194.726 381.231 192.597C381.231 190.468 379.195 188.736 376.693 188.736Z" fill="#C05435"/>
<path d="M403.094 188.736C400.592 188.736 398.555 190.468 398.555 192.597C398.555 194.726 400.592 196.458 403.094 196.458C405.597 196.458 407.634 194.726 407.634 192.597C407.634 190.468 405.597 188.736 403.094 188.736Z" fill="#C05435"/>
<path d="M244.682 211.702C242.179 211.702 240.142 213.435 240.142 215.563C240.142 217.692 242.179 219.425 244.682 219.425C247.185 219.425 249.221 217.692 249.221 215.563C249.221 213.435 247.185 211.702 244.682 211.702Z" fill="#C05435"/>
<path d="M271.084 211.702C268.581 211.702 266.544 213.435 266.544 215.563C266.544 217.692 268.581 219.425 271.084 219.425C273.587 219.425 275.623 217.692 275.623 215.563C275.623 213.435 273.587 211.702 271.084 211.702Z" fill="#C05435"/>
<path d="M297.485 211.702C294.983 211.702 292.946 213.435 292.946 215.563C292.946 217.692 294.983 219.425 297.485 219.425C299.988 219.425 302.025 217.692 302.025 215.563C302.025 213.435 299.988 211.702 297.485 211.702Z" fill="#C05435"/>
<path d="M323.888 211.702C321.385 211.702 319.349 213.435 319.349 215.563C319.349 217.692 321.385 219.425 323.888 219.425C326.391 219.425 328.427 217.692 328.427 215.563C328.427 213.435 326.391 211.702 323.888 211.702Z" fill="#C05435"/>
<path d="M350.29 211.702C347.787 211.702 345.751 213.435 345.751 215.563C345.751 217.692 347.787 219.425 350.29 219.425C352.793 219.425 354.83 217.692 354.83 215.563C354.83 213.435 352.793 211.702 350.29 211.702Z" fill="#C05435"/>
<path d="M376.693 211.702C374.189 211.702 372.153 213.435 372.153 215.563C372.153 217.692 374.189 219.425 376.693 219.425C379.195 219.425 381.231 217.692 381.231 215.563C381.231 213.435 379.195 211.702 376.693 211.702Z" fill="#C05435"/>
<path d="M403.094 211.702C400.592 211.702 398.555 213.435 398.555 215.563C398.555 217.692 400.592 219.425 403.094 219.425C405.597 219.425 407.634 217.692 407.634 215.563C407.634 213.435 405.597 211.702 403.094 211.702Z" fill="#C05435"/>
<path d="M412.173 227.147C414.68 227.147 416.712 225.418 416.712 223.286C416.712 221.153 414.68 219.425 412.173 219.425C409.666 219.425 407.634 221.153 407.634 223.286C407.634 225.418 409.666 227.147 412.173 227.147Z" fill="#C05435"/>
<path d="M438.575 219.425C436.072 219.425 434.035 221.157 434.035 223.286C434.035 225.415 436.072 227.147 438.575 227.147C441.078 227.147 443.115 225.415 443.115 223.286C443.115 221.157 441.078 219.425 438.575 219.425Z" fill="#C05435"/>
<path d="M464.977 219.425C462.474 219.425 460.438 221.157 460.438 223.286C460.438 225.415 462.474 227.147 464.977 227.147C467.48 227.147 469.516 225.415 469.516 223.286C469.516 221.157 467.48 219.425 464.977 219.425Z" fill="#C05435"/>
<path d="M491.378 219.425C488.876 219.425 486.839 221.157 486.839 223.286C486.839 225.415 488.876 227.147 491.378 227.147C493.881 227.147 495.918 225.415 495.918 223.286C495.918 221.157 493.881 219.425 491.378 219.425Z" fill="#C05435"/>
<path d="M517.781 227.147C520.289 227.147 522.321 225.418 522.321 223.286C522.321 221.153 520.289 219.425 517.781 219.425C515.274 219.425 513.242 221.153 513.242 223.286C513.242 225.418 515.274 227.147 517.781 227.147Z" fill="#C05435"/>
<path d="M544.183 227.147C546.69 227.147 548.722 225.418 548.722 223.286C548.722 221.153 546.69 219.425 544.183 219.425C541.676 219.425 539.644 221.153 539.644 223.286C539.644 225.418 541.676 227.147 544.183 227.147Z" fill="#C05435"/>
<path d="M570.586 219.425C568.083 219.425 566.046 221.157 566.046 223.286C566.046 225.415 568.083 227.147 570.586 227.147C573.089 227.147 575.125 225.415 575.125 223.286C575.125 221.157 573.089 219.425 570.586 219.425Z" fill="#C05435"/>
<path d="M412.173 242.391C409.67 242.391 407.634 244.124 407.634 246.252C407.634 248.381 409.67 250.114 412.173 250.114C414.676 250.114 416.712 248.381 416.712 246.252C416.712 244.124 414.676 242.391 412.173 242.391Z" fill="#C05435"/>
<path d="M438.575 242.391C436.072 242.391 434.035 244.124 434.035 246.252C434.035 248.381 436.072 250.114 438.575 250.114C441.078 250.114 443.115 248.381 443.115 246.252C443.115 244.124 441.078 242.391 438.575 242.391Z" fill="#C05435"/>
<path d="M464.977 242.391C462.474 242.391 460.438 244.124 460.438 246.252C460.438 248.381 462.474 250.114 464.977 250.114C467.48 250.114 469.516 248.381 469.516 246.252C469.516 244.124 467.48 242.391 464.977 242.391Z" fill="#C05435"/>
<path d="M491.378 242.391C488.876 242.391 486.839 244.124 486.839 246.252C486.839 248.381 488.876 250.114 491.378 250.114C493.881 250.114 495.918 248.381 495.918 246.252C495.918 244.124 493.881 242.391 491.378 242.391Z" fill="#C05435"/>
<path d="M517.781 242.391C515.279 242.391 513.242 244.124 513.242 246.252C513.242 248.381 515.279 250.114 517.781 250.114C520.284 250.114 522.321 248.381 522.321 246.252C522.321 244.124 520.284 242.391 517.781 242.391Z" fill="#C05435"/>
<path d="M544.183 242.391C541.68 242.391 539.644 244.124 539.644 246.252C539.644 248.381 541.68 250.114 544.183 250.114C546.686 250.114 548.722 248.381 548.722 246.252C548.722 244.124 546.686 242.391 544.183 242.391Z" fill="#C05435"/>
<path d="M570.586 242.391C568.083 242.391 566.046 244.124 566.046 246.252C566.046 248.381 568.083 250.114 570.586 250.114C573.089 250.114 575.125 248.381 575.125 246.252C575.125 244.124 573.089 242.391 570.586 242.391Z" fill="#C05435"/>
<path d="M240.102 219.425C237.599 219.425 235.562 221.157 235.562 223.286C235.562 225.415 237.599 227.147 240.102 227.147C242.605 227.147 244.641 225.415 244.641 223.286C244.641 221.157 242.605 219.425 240.102 219.425Z" fill="#C05435"/>
<path d="M266.504 219.425C264.001 219.425 261.964 221.157 261.964 223.286C261.964 225.415 264.001 227.147 266.504 227.147C269.007 227.147 271.043 225.415 271.043 223.286C271.043 221.157 269.007 219.425 266.504 219.425Z" fill="#C05435"/>
<path d="M292.905 219.425C290.403 219.425 288.366 221.157 288.366 223.286C288.366 225.415 290.403 227.147 292.905 227.147C295.408 227.147 297.445 225.415 297.445 223.286C297.445 221.157 295.408 219.425 292.905 219.425Z" fill="#C05435"/>
<path d="M319.307 227.147C321.814 227.147 323.847 225.418 323.847 223.286C323.847 221.153 321.814 219.425 319.307 219.425C316.801 219.425 314.769 221.153 314.769 223.286C314.769 225.418 316.801 227.147 319.307 227.147Z" fill="#C05435"/>
<path d="M345.71 227.147C348.217 227.147 350.25 225.418 350.25 223.286C350.25 221.153 348.217 219.425 345.71 219.425C343.203 219.425 341.171 221.153 341.171 223.286C341.171 225.418 343.203 227.147 345.71 227.147Z" fill="#C05435"/>
<path d="M372.112 219.425C369.609 219.425 367.573 221.157 367.573 223.286C367.573 225.415 369.609 227.147 372.112 227.147C374.615 227.147 376.651 225.415 376.651 223.286C376.651 221.157 374.615 219.425 372.112 219.425Z" fill="#C05435"/>
<path d="M398.514 227.147C401.017 227.147 403.053 225.415 403.053 223.286C403.053 221.157 401.017 219.425 398.514 219.425C396.011 219.425 393.975 221.157 393.975 223.286C393.975 225.415 396.011 227.147 398.514 227.147Z" fill="#C05435"/>
<path d="M240.102 242.391C237.599 242.391 235.562 244.124 235.562 246.252C235.562 248.381 237.599 250.114 240.102 250.114C242.605 250.114 244.641 248.381 244.641 246.252C244.641 244.124 242.605 242.391 240.102 242.391Z" fill="#C05435"/>
<path d="M266.504 242.391C264.001 242.391 261.964 244.124 261.964 246.252C261.964 248.381 264.001 250.114 266.504 250.114C269.007 250.114 271.043 248.381 271.043 246.252C271.043 244.124 269.007 242.391 266.504 242.391Z" fill="#C05435"/>
<path d="M292.905 242.391C290.403 242.391 288.366 244.124 288.366 246.252C288.366 248.381 290.403 250.114 292.905 250.114C295.408 250.114 297.445 248.381 297.445 246.252C297.445 244.124 295.408 242.391 292.905 242.391Z" fill="#C05435"/>
<path d="M319.307 242.391C316.804 242.391 314.769 244.124 314.769 246.252C314.769 248.381 316.804 250.114 319.307 250.114C321.811 250.114 323.847 248.381 323.847 246.252C323.847 244.124 321.811 242.391 319.307 242.391Z" fill="#C05435"/>
<path d="M345.71 242.391C343.207 242.391 341.171 244.124 341.171 246.252C341.171 248.381 343.207 250.114 345.71 250.114C348.213 250.114 350.25 248.381 350.25 246.252C350.25 244.124 348.213 242.391 345.71 242.391Z" fill="#C05435"/>
<path d="M372.112 242.391C369.609 242.391 367.573 244.124 367.573 246.252C367.573 248.381 369.609 250.114 372.112 250.114C374.615 250.114 376.651 248.381 376.651 246.252C376.651 244.124 374.615 242.391 372.112 242.391Z" fill="#C05435"/>
<path d="M398.514 242.391C396.011 242.391 393.975 244.124 393.975 246.252C393.975 248.381 396.011 250.114 398.514 250.114C401.017 250.114 403.053 248.381 403.053 246.252C403.053 244.124 401.017 242.391 398.514 242.391Z" fill="#C05435"/>
<path d="M416.754 191.887C419.26 191.887 421.292 190.158 421.292 188.026C421.292 185.893 419.26 184.164 416.754 184.164C414.246 184.164 412.214 185.893 412.214 188.026C412.214 190.158 414.246 191.887 416.754 191.887Z" fill="#C05435"/>
<path d="M443.155 184.164C440.652 184.164 438.615 185.897 438.615 188.026C438.615 190.154 440.652 191.887 443.155 191.887C445.658 191.887 447.695 190.154 447.695 188.026C447.695 185.897 445.658 184.164 443.155 184.164Z" fill="#C05435"/>
<path d="M469.557 184.164C467.054 184.164 465.018 185.897 465.018 188.026C465.018 190.154 467.054 191.887 469.557 191.887C472.06 191.887 474.096 190.154 474.096 188.026C474.096 185.897 472.06 184.164 469.557 184.164Z" fill="#C05435"/>
<path d="M495.959 184.164C493.457 184.164 491.42 185.897 491.42 188.026C491.42 190.154 493.457 191.887 495.959 191.887C498.462 191.887 500.499 190.154 500.499 188.026C500.499 185.897 498.462 184.164 495.959 184.164Z" fill="#C05435"/>
<path d="M522.361 191.887C524.869 191.887 526.901 190.158 526.901 188.026C526.901 185.893 524.869 184.164 522.361 184.164C519.854 184.164 517.822 185.893 517.822 188.026C517.822 190.158 519.854 191.887 522.361 191.887Z" fill="#C05435"/>
<path d="M548.763 191.887C551.27 191.887 553.302 190.158 553.302 188.026C553.302 185.893 551.27 184.164 548.763 184.164C546.256 184.164 544.224 185.893 544.224 188.026C544.224 190.158 546.256 191.887 548.763 191.887Z" fill="#C05435"/>
<path d="M416.754 207.131C414.251 207.131 412.214 208.863 412.214 210.992C412.214 213.121 414.251 214.853 416.754 214.853C419.256 214.853 421.292 213.121 421.292 210.992C421.292 208.863 419.256 207.131 416.754 207.131Z" fill="#C05435"/>
<path d="M443.155 207.131C440.652 207.131 438.615 208.863 438.615 210.992C438.615 213.121 440.652 214.853 443.155 214.853C445.658 214.853 447.695 213.121 447.695 210.992C447.695 208.863 445.658 207.131 443.155 207.131Z" fill="#C05435"/>
<path d="M469.557 207.131C467.054 207.131 465.018 208.863 465.018 210.992C465.018 213.121 467.054 214.853 469.557 214.853C472.06 214.853 474.096 213.121 474.096 210.992C474.096 208.863 472.06 207.131 469.557 207.131Z" fill="#C05435"/>
<path d="M495.959 207.131C493.457 207.131 491.42 208.863 491.42 210.992C491.42 213.121 493.457 214.853 495.959 214.853C498.462 214.853 500.499 213.121 500.499 210.992C500.499 208.863 498.462 207.131 495.959 207.131Z" fill="#C05435"/>
<path d="M522.361 207.131C519.859 207.131 517.822 208.863 517.822 210.992C517.822 213.121 519.859 214.853 522.361 214.853C524.864 214.853 526.901 213.121 526.901 210.992C526.901 208.863 524.864 207.131 522.361 207.131Z" fill="#C05435"/>
<path d="M548.763 207.131C546.26 207.131 544.224 208.863 544.224 210.992C544.224 213.121 546.26 214.853 548.763 214.853C551.266 214.853 553.302 213.121 553.302 210.992C553.302 208.863 551.266 207.131 548.763 207.131Z" fill="#C05435"/>
</g>
</g>
<path d="M238.498 217.825V202.709C238.498 185.703 249.478 175.311 268.693 175.311C283.555 175.311 293.209 181.074 297.374 192.506L298.416 195.34L277.686 202.614L276.455 199.497C274.941 195.718 273.048 194.301 268.693 194.301C262.257 194.301 260.458 196.568 260.458 202.614V217.919C260.458 223.966 262.257 226.233 268.693 226.233C273.994 226.233 276.645 224.721 276.645 221.604V221.226H265.759V204.693H298.889V220.942C298.889 238.137 283.933 245.222 268.693 245.222C249.478 245.222 238.498 234.83 238.498 217.825ZM323.701 243.805H300.7L324.458 176.728H346.324L370.177 243.805H346.513L344.052 234.641H326.257L323.701 243.805ZM335.249 201.858L330.99 217.447H339.414L335.249 201.858ZM375.772 176.728H397.259L411.363 212.156L425.561 176.728H446.954V243.805H426.508V215.179L418.651 243.805H404.169L396.218 215.179V243.805H375.772V176.728ZM457.937 176.728H507.537V195.623H479.897V202.425H506.022V218.486H479.897V224.816H508.2V243.805H457.937V176.728ZM514.711 231.146L513.859 228.689L532.696 220.753L534.494 223.777C535.725 226.044 538.754 227.178 543.581 227.178C548.882 227.178 551.532 226.422 551.532 223.871C551.627 221.32 548.693 220.564 542.161 219.525C528.152 217.258 515.184 214.14 515.563 196.473C515.752 183.625 526.827 175.311 545.001 175.311C559.389 175.311 568.003 178.996 572.262 187.971L573.682 190.805L554.183 198.93L552.858 196.284C551.627 193.923 548.882 192.694 544.717 192.694C540.174 192.694 537.902 193.828 537.902 196.001C537.807 198.741 540.931 199.591 548.503 200.63C553.236 201.292 559.105 202.142 563.175 204.315C570.937 208.377 574.061 214.99 573.966 223.777C573.682 238.42 559.2 245.222 543.013 245.222C528.909 245.222 518.119 240.404 514.711 231.146Z" fill="white"/>
<path d="M297.374 192.506L296.657 192.766L296.657 192.768L297.374 192.506ZM298.415 195.34L298.668 196.058L299.398 195.802L299.132 195.078L298.415 195.34ZM277.686 202.614L276.975 202.894L277.244 203.577L277.938 203.333L277.686 202.614ZM276.455 199.497L277.165 199.217L277.163 199.214L276.455 199.497ZM276.644 221.226H277.408V220.464H276.644V221.226ZM265.759 221.226H264.995V221.988H265.759V221.226ZM265.759 204.693V203.931H264.995V204.693H265.759ZM298.889 204.693H299.652V203.931H298.889V204.693ZM239.261 217.825V202.709H237.734V217.825H239.261ZM239.261 202.709C239.261 194.375 241.947 187.746 246.906 183.194C251.874 178.634 259.218 176.073 268.693 176.073V174.549C258.953 174.549 251.198 177.185 245.873 182.072C240.539 186.967 237.734 194.037 237.734 202.709H239.261ZM268.693 176.073C276.029 176.073 282.011 177.496 286.652 180.275C291.28 183.047 294.628 187.2 296.657 192.766L298.092 192.245C295.954 186.38 292.392 181.936 287.437 178.968C282.494 176.008 276.218 174.549 268.693 174.549V176.073ZM296.657 192.768L297.698 195.602L299.132 195.078L298.091 192.243L296.657 192.768ZM298.162 194.621L277.432 201.896L277.938 203.333L298.668 196.058L298.162 194.621ZM278.395 202.335L277.165 199.217L275.744 199.776L276.975 202.894L278.395 202.335ZM277.163 199.214C276.382 197.264 275.457 195.803 274.071 194.853C272.683 193.903 270.943 193.539 268.693 193.539V195.062C270.797 195.062 272.181 195.407 273.207 196.11C274.234 196.813 275.013 197.951 275.746 199.779L277.163 199.214ZM268.693 193.539C265.427 193.539 263.088 194.105 261.607 195.667C260.137 197.217 259.695 199.563 259.695 202.614H261.221C261.221 199.619 261.679 197.808 262.716 196.713C263.744 195.63 265.523 195.062 268.693 195.062V193.539ZM259.695 202.614V217.919H261.221V202.614H259.695ZM259.695 217.919C259.695 220.971 260.137 223.316 261.607 224.867C263.088 226.429 265.427 226.995 268.693 226.995V225.471C265.523 225.471 263.744 224.903 262.716 223.82C261.679 222.725 261.221 220.914 261.221 217.919H259.695ZM268.693 226.995C271.39 226.995 273.54 226.615 275.04 225.746C276.605 224.84 277.408 223.429 277.408 221.604H275.881C275.881 222.896 275.359 223.799 274.273 224.429C273.122 225.095 271.296 225.471 268.693 225.471V226.995ZM277.408 221.604V221.226H275.881V221.604H277.408ZM276.644 220.464H265.759V221.988H276.644V220.464ZM266.522 221.226V204.693H264.995V221.226H266.522ZM265.759 205.455H298.889V203.931H265.759V205.455ZM298.125 204.693V220.942H299.652V204.693H298.125ZM298.125 220.942C298.125 229.282 294.515 235.122 289.069 238.905C283.591 242.71 276.21 244.46 268.693 244.46V245.984C276.416 245.984 284.132 244.192 289.941 240.156C295.784 236.097 299.652 229.797 299.652 220.942H298.125ZM268.693 244.46C259.218 244.46 251.874 241.9 246.906 237.34C241.947 232.788 239.261 226.158 239.261 217.825H237.734C237.734 226.497 240.539 233.566 245.873 238.461C251.198 243.349 258.953 245.984 268.693 245.984V244.46ZM323.701 243.805V244.567H324.281L324.437 244.009L323.701 243.805ZM300.699 243.805L299.979 243.552L299.62 244.567H300.699V243.805ZM324.458 176.728V175.966H323.918L323.738 176.475L324.458 176.728ZM346.324 176.728L347.044 176.474L346.863 175.966H346.324V176.728ZM370.177 243.805V244.567H371.258L370.897 243.551L370.177 243.805ZM346.513 243.805L345.776 244.003L345.928 244.567H346.513V243.805ZM344.052 234.641L344.789 234.444L344.637 233.879H344.052V234.641ZM326.257 234.641V233.879H325.677L325.521 234.437L326.257 234.641ZM335.249 201.859L335.986 201.662L335.257 198.933L334.512 201.658L335.249 201.859ZM330.989 217.447L330.253 217.246L329.99 218.209H330.989V217.447ZM339.414 217.447V218.209H340.408L340.151 217.25L339.414 217.447ZM323.701 243.043H300.699V244.567H323.701V243.043ZM301.419 244.059L325.178 176.982L323.738 176.475L299.979 243.552L301.419 244.059ZM324.458 177.49H346.324V175.966H324.458V177.49ZM345.605 176.983L369.458 244.06L370.897 243.551L347.044 176.474L345.605 176.983ZM370.177 243.043H346.513V244.567H370.177V243.043ZM347.25 243.608L344.789 234.444L343.315 234.839L345.776 244.003L347.25 243.608ZM344.052 233.879H326.257V235.403H344.052V233.879ZM325.521 234.437L322.966 243.601L324.437 244.009L326.992 234.845L325.521 234.437ZM334.512 201.658L330.253 217.246L331.726 217.647L335.986 202.059L334.512 201.658ZM330.989 218.209H339.414V216.685H330.989V218.209ZM340.151 217.25L335.986 201.662L334.511 202.055L338.676 217.643L340.151 217.25ZM375.772 176.728V175.966H375.008V176.728H375.772ZM397.259 176.728L397.968 176.447L397.776 175.966H397.259V176.728ZM411.363 212.156L410.653 212.437L411.36 214.213L412.071 212.439L411.363 212.156ZM425.561 176.728V175.966H425.044L424.852 176.446L425.561 176.728ZM446.953 176.728H447.717V175.966H446.953V176.728ZM446.953 243.805V244.567H447.717V243.805H446.953ZM426.508 243.805H425.744V244.567H426.508V243.805ZM426.508 215.179H427.271L425.771 214.978L426.508 215.179ZM418.651 243.805V244.567H419.234L419.387 244.006L418.651 243.805ZM404.169 243.805L403.433 244.009L403.588 244.567H404.169V243.805ZM396.218 215.179L396.953 214.976L395.454 215.179H396.218ZM396.218 243.805V244.567H396.981V243.805H396.218ZM375.772 243.805H375.008V244.567H375.772V243.805ZM375.772 177.49H397.259V175.966H375.772V177.49ZM396.549 177.009L410.653 212.437L412.072 211.875L397.968 176.447L396.549 177.009ZM412.071 212.439L426.27 177.011L424.852 176.446L410.653 211.874L412.071 212.439ZM425.561 177.49H446.953V175.966H425.561V177.49ZM446.19 176.728V243.805H447.717V176.728H446.19ZM446.953 243.043H426.508V244.567H446.953V243.043ZM427.271 243.805V215.179H425.744V243.805H427.271ZM425.771 214.978L417.915 243.604L419.387 244.006L427.244 215.381L425.771 214.978ZM418.651 243.043H404.169V244.567H418.651V243.043ZM404.904 243.602L396.953 214.976L395.482 215.383L403.433 244.009L404.904 243.602ZM395.454 215.179V243.805H396.981V215.179H395.454ZM396.218 243.043H375.772V244.567H396.218V243.043ZM376.535 243.805V176.728H375.008V243.805H376.535ZM457.937 176.728V175.966H457.173V176.728H457.937ZM507.537 176.728H508.3V175.966H507.537V176.728ZM507.537 195.623V196.385H508.3V195.623H507.537ZM479.897 195.623V194.861H479.134V195.623H479.897ZM479.897 202.425H479.134V203.187H479.897V202.425ZM506.022 202.425H506.785V201.663H506.022V202.425ZM506.022 218.486V219.248H506.785V218.486H506.022ZM479.897 218.486V217.724H479.134V218.486H479.897ZM479.897 224.816H479.134V225.578H479.897V224.816ZM508.199 224.816H508.963V224.054H508.199V224.816ZM508.199 243.805V244.567H508.963V243.805H508.199ZM457.937 243.805H457.173V244.567H457.937V243.805ZM457.937 177.49H507.537V175.966H457.937V177.49ZM506.773 176.728V195.623H508.3V176.728H506.773ZM507.537 194.861H479.897V196.385H507.537V194.861ZM479.134 195.623V202.425H480.66V195.623H479.134ZM479.897 203.187H506.022V201.663H479.897V203.187ZM505.259 202.425V218.486H506.785V202.425H505.259ZM506.022 217.724H479.897V219.248H506.022V217.724ZM479.134 218.486V224.816H480.66V218.486H479.134ZM479.897 225.578H508.199V224.054H479.897V225.578ZM507.436 224.816V243.805H508.963V224.816H507.436ZM508.199 243.043H457.937V244.567H508.199V243.043ZM458.7 243.805V176.728H457.173V243.805H458.7ZM514.711 231.146L513.989 231.395L513.992 231.402L513.995 231.409L514.711 231.146ZM513.859 228.689L513.563 227.988L512.904 228.265L513.137 228.938L513.859 228.689ZM532.695 220.753L533.352 220.364L533.012 219.793L532.399 220.052L532.695 220.753ZM534.494 223.777L535.166 223.414L535.158 223.4L535.15 223.387L534.494 223.777ZM551.532 223.871L550.769 223.843L550.769 223.857V223.871H551.532ZM542.161 219.525L542.039 220.277L542.041 220.278L542.161 219.525ZM515.563 196.474L516.326 196.489V196.485L515.563 196.474ZM572.262 187.971L571.573 188.297L571.576 188.304L571.579 188.311L572.262 187.971ZM573.682 190.805L573.976 191.508L574.731 191.194L574.365 190.464L573.682 190.805ZM554.182 198.93L553.5 199.27L553.819 199.907L554.477 199.633L554.182 198.93ZM552.857 196.285L553.54 195.944L553.537 195.939L553.535 195.933L552.857 196.285ZM537.902 196.001L538.665 196.027V196.014V196.001H537.902ZM548.503 200.63L548.609 199.876L548.608 199.875L548.503 200.63ZM563.175 204.315L562.815 204.987L562.821 204.99L563.175 204.315ZM573.966 223.777L574.729 223.791V223.785L573.966 223.777ZM515.432 230.897L514.58 228.44L513.137 228.938L513.989 231.395L515.432 230.897ZM514.156 229.391L532.992 221.455L532.399 220.052L513.563 227.988L514.156 229.391ZM532.04 221.143L533.838 224.166L535.15 223.387L533.352 220.364L532.04 221.143ZM533.823 224.139C535.272 226.81 538.715 227.94 543.581 227.94V226.416C538.792 226.416 536.177 225.278 535.166 223.414L533.823 224.139ZM543.581 227.94C546.236 227.94 548.35 227.755 549.818 227.192C550.566 226.906 551.198 226.503 551.64 225.929C552.09 225.345 552.295 224.649 552.295 223.871H550.769C550.769 224.369 550.643 224.724 550.431 224.999C550.211 225.284 549.848 225.549 549.271 225.77C548.089 226.222 546.227 226.416 543.581 226.416V227.94ZM552.295 223.899C552.325 223.098 552.112 222.385 551.618 221.781C551.143 221.198 550.452 220.771 549.624 220.428C547.987 219.749 545.525 219.289 542.282 218.773L542.041 220.278C545.329 220.801 547.6 221.239 549.039 221.835C549.75 222.129 550.182 222.434 550.435 222.743C550.669 223.03 550.787 223.369 550.769 223.843L552.295 223.899ZM542.284 218.773C535.259 217.637 528.677 216.306 523.889 213.139C521.514 211.568 519.589 209.55 518.275 206.874C516.958 204.195 516.234 200.813 516.326 196.489L514.8 196.458C514.703 200.967 515.457 204.601 516.904 207.545C518.353 210.494 520.474 212.709 523.045 214.409C528.148 217.784 535.055 219.147 542.039 220.277L542.284 218.773ZM516.326 196.485C516.418 190.302 519.115 185.235 523.988 181.69C528.882 178.129 536.02 176.073 545.001 176.073V174.549C535.808 174.549 528.321 176.651 523.088 180.459C517.832 184.282 514.898 189.796 514.8 196.462L516.326 196.485ZM545.001 176.073C552.14 176.073 557.768 176.989 562.113 178.968C566.433 180.936 569.519 183.971 571.573 188.297L572.952 187.645C570.746 182.996 567.395 179.7 562.747 177.582C558.123 175.476 552.25 174.549 545.001 174.549V176.073ZM571.579 188.311L572.999 191.146L574.365 190.464L572.945 187.63L571.579 188.311ZM573.388 190.102L553.889 198.227L554.477 199.633L573.976 191.508L573.388 190.102ZM554.866 198.589L553.54 195.944L552.175 196.625L553.5 199.27L554.866 198.589ZM553.535 195.933C552.11 193.198 548.998 191.933 544.717 191.933V193.456C548.766 193.456 551.144 194.647 552.18 196.636L553.535 195.933ZM544.717 191.933C542.405 191.933 540.563 192.218 539.27 192.848C538.614 193.169 538.074 193.592 537.699 194.136C537.32 194.686 537.138 195.318 537.138 196.001H538.665C538.665 195.598 538.768 195.274 538.957 195C539.15 194.72 539.461 194.451 539.941 194.218C540.921 193.738 542.485 193.456 544.717 193.456V191.933ZM537.139 195.975C537.11 196.822 537.334 197.577 537.865 198.219C538.377 198.838 539.127 199.295 540.044 199.66C541.862 200.387 544.631 200.868 548.399 201.385L548.608 199.875C544.803 199.353 542.224 198.89 540.611 198.246C539.813 197.927 539.326 197.593 539.042 197.249C538.777 196.929 538.647 196.55 538.665 196.027L537.139 195.975ZM548.398 201.385C553.169 202.051 558.889 202.89 562.815 204.987L563.535 203.643C559.321 201.394 553.304 200.532 548.609 199.876L548.398 201.385ZM562.821 204.99C566.581 206.958 569.183 209.523 570.843 212.632C572.507 215.75 573.249 219.465 573.203 223.768L574.729 223.785C574.778 219.302 574.005 215.317 572.191 211.916C570.371 208.507 567.531 205.734 563.53 203.64L562.821 204.99ZM573.203 223.762C573.066 230.79 569.542 235.93 564.05 239.344C558.528 242.777 551.015 244.46 543.013 244.46V245.984C551.198 245.984 559.019 244.267 564.856 240.637C570.723 236.99 574.582 231.407 574.729 223.791L573.203 223.762ZM543.013 244.46C529.011 244.46 518.665 239.679 515.428 230.883L513.995 231.409C517.573 241.129 528.808 245.984 543.013 245.984V244.46Z" fill="black"/>
</g>
<defs>
<filter id="filter0_d_214_432" x="222.391" y="177.597" width="345.47" height="73.9111" filterUnits="userSpaceOnUse" color-interpolation-filters="sRGB">
<feFlood flood-opacity="0" result="BackgroundImageFix"/>
<feColorMatrix in="SourceAlpha" type="matrix" values="0 0 0 0 0 0 0 0 0 0 0 0 0 0 0 0 0 0 127 0" result="hardAlpha"/>
<feOffset dx="-10" dy="4"/>
<feComposite in2="hardAlpha" operator="out"/>
<feColorMatrix type="matrix" values="0 0 0 0 0 0 0 0 0 0 0 0 0 0 0 0 0 0 1 0"/>
<feBlend mode="normal" in2="BackgroundImageFix" result="effect1_dropShadow_214_432"/>
<feBlend mode="normal" in="SourceGraphic" in2="effect1_dropShadow_214_432" result="shape"/>
</filter>
<clipPath id="clip0_214_432">
<rect width="800" height="428.183" fill="white"/>
</clipPath>
</defs>
</svg>
