<svg width="82" height="79" viewBox="0 0 82 79" fill="none" xmlns="http://www.w3.org/2000/svg">
<path d="M67.18 2L54.17 14.38H14.75V51.88L2 64L14.75 76.85H79.6V14.38L67.18 2Z" fill="#8A2FF5" stroke="#160133" stroke-width="3" stroke-linecap="round" stroke-linejoin="round"/>
<path d="M66.6601 2H2.08008V63.84H66.6601V2Z" fill="#FFDEE3" stroke="#160133" stroke-width="3" stroke-miterlimit="10"/>
<path d="M43.4399 14.2202H24.8499C19.6299 14.2202 15.3799 18.4702 15.3799 23.6902V42.2802C15.3799 47.5002 19.6299 51.7502 24.8499 51.7502H43.4399C48.6599 51.7502 52.8999 47.5102 52.8999 42.2802V23.6902C52.8999 18.4702 48.6599 14.2202 43.4399 14.2202ZM48.8199 42.2702C48.8199 45.2402 46.3999 47.6502 43.4399 47.6502H24.8499C21.8799 47.6502 19.4699 45.2302 19.4699 42.2702V23.6802C19.4699 20.7102 21.8799 18.3002 24.8499 18.3002H43.4399C46.4099 18.3002 48.8199 20.7102 48.8199 23.6802V42.2702Z" fill="#160133"/>
<path d="M34.1497 23.3203C28.8197 23.3203 24.4897 27.6603 24.4897 32.9803C24.4897 38.3003 28.8297 42.6403 34.1497 42.6403C39.4697 42.6403 43.8097 38.3003 43.8097 32.9803C43.8097 27.6603 39.4797 23.3203 34.1497 23.3203ZM34.1497 38.5603C31.0797 38.5603 28.5697 36.0603 28.5697 32.9803C28.5697 29.9003 31.0697 27.4003 34.1497 27.4003C37.2297 27.4003 39.7297 29.9003 39.7297 32.9803C39.7297 36.0603 37.2297 38.5603 34.1497 38.5603Z" fill="#160133"/>
<path d="M44.1201 20.7402C42.8601 20.7402 41.8301 21.7702 41.8301 23.0302C41.8301 24.2902 42.8501 25.3202 44.1201 25.3202C45.3901 25.3202 46.4101 24.3002 46.4101 23.0302C46.4101 21.7602 45.3801 20.7402 44.1201 20.7402Z" fill="#160133"/>
</svg>
