<svg width="2268" height="757" viewBox="0 0 2268 757" fill="none" xmlns="http://www.w3.org/2000/svg">
<path d="M469.287 293.263L469.316 293.258L469.344 293.25L874.996 174.979C938.427 156.485 1004.13 146.942 1070.2 146.626L1228.74 145.87C1308.47 145.489 1387.56 131.692 1462.71 105.058L1575.66 65.0231C1645.57 40.2431 1719.16 27.4131 1793.34 27.0714L1861.3 26.7583C1887.83 26.6361 1914.17 22.2119 1939.28 13.6582C2070.78 -31.126 2213.11 42.553 2252.46 175.774L2256.63 189.898C2299.07 333.575 2210.89 483.128 2064.62 515.538L2049.37 518.917C2031.46 522.887 2013.19 525.041 1994.84 525.346L1819.47 528.27C1767.52 529.136 1715.83 535.697 1665.32 547.835L1382.7 615.743L1382.69 615.746L805.708 712.779L253.035 755.276C232.826 756.83 212.498 755.558 192.64 751.499L175.346 747.963C97.4555 732.039 37.3907 669.831 24.2057 591.43L2.29109 461.121C-10.31 386.192 57.9824 322.885 131.743 341.117C145.896 344.616 160.617 345.173 174.994 342.755L469.287 293.263Z" fill="#FFF478" stroke="black"/>
</svg>
