<svg width="306" height="78" viewBox="0 0 306 78" fill="none" xmlns="http://www.w3.org/2000/svg">
<g clip-path="url(#clip0_142_3574)">
<path d="M291.55 1.5L278.54 13.88H239.12V51.38L226.37 63.5L239.12 76.36H303.97V13.88L291.55 1.5Z" fill="#8A2FF5" stroke="#160133" stroke-width="3" stroke-linecap="round" stroke-linejoin="round"/>
<path d="M291.03 1.5H226.45V63.34H291.03V1.5Z" fill="#FFDEE3" stroke="#160133" stroke-width="3" stroke-miterlimit="10"/>
<path d="M268.01 32.85H262.25V53.41H253.71V32.85H249.65V25.59H253.71V20.89C253.71 17.53 255.31 12.27 262.33 12.27L268.66 12.3V19.35H264.07C263.32 19.35 262.26 19.73 262.26 21.33V25.6H268.77L268.02 32.85H268.01Z" fill="#160133"/>
<path d="M177.93 1.5L164.92 13.88H125.5V51.38L112.75 63.5L125.5 76.35H190.35V13.88L177.93 1.5Z" fill="#8A2FF5" stroke="#160133" stroke-width="3" stroke-linecap="round" stroke-linejoin="round"/>
<path d="M177.41 1.5H112.83V63.34H177.41V1.5Z" fill="#FFDEE3" stroke="#160133" stroke-width="3" stroke-miterlimit="10"/>
<path d="M154.19 13.7202H135.6C130.38 13.7202 126.13 17.9702 126.13 23.1902V41.7802C126.13 47.0002 130.38 51.2502 135.6 51.2502H154.19C159.41 51.2502 163.65 47.0102 163.65 41.7802V23.1902C163.65 17.9702 159.41 13.7202 154.19 13.7202ZM159.57 41.7702C159.57 44.7402 157.15 47.1502 154.19 47.1502H135.6C132.63 47.1502 130.22 44.7302 130.22 41.7702V23.1802C130.22 20.2102 132.63 17.8002 135.6 17.8002H154.19C157.16 17.8002 159.57 20.2102 159.57 23.1802V41.7702Z" fill="#160133"/>
<path d="M144.9 22.8203C139.57 22.8203 135.24 27.1603 135.24 32.4803C135.24 37.8003 139.58 42.1403 144.9 42.1403C150.22 42.1403 154.56 37.8003 154.56 32.4803C154.56 27.1603 150.23 22.8203 144.9 22.8203ZM144.9 38.0603C141.83 38.0603 139.32 35.5603 139.32 32.4803C139.32 29.4003 141.82 26.9003 144.9 26.9003C147.98 26.9003 150.48 29.4003 150.48 32.4803C150.48 35.5603 147.98 38.0603 144.9 38.0603Z" fill="#160133"/>
<path d="M154.87 20.2402C153.61 20.2402 152.58 21.2702 152.58 22.5302C152.58 23.7902 153.6 24.8202 154.87 24.8202C156.14 24.8202 157.16 23.8002 157.16 22.5302C157.16 21.2602 156.13 20.2402 154.87 20.2402Z" fill="#160133"/>
<path d="M66.68 1.5L53.67 13.88H14.25V51.38L1.5 63.5L14.25 76.35H79.1V13.88L66.68 1.5Z" fill="#8A2FF5" stroke="#160133" stroke-width="3" stroke-linecap="round" stroke-linejoin="round"/>
<path d="M66.16 1.5H1.57999V63.34H66.16V1.5Z" fill="#FFDEE3" stroke="#160133" stroke-width="3" stroke-miterlimit="10"/>
<path d="M55.89 23.5702C55.89 19.9302 52.94 16.9702 49.3 16.9702H18.37C14.73 16.9702 11.78 19.9202 11.78 23.5702V41.2602C11.78 44.9002 14.73 47.8602 18.37 47.8602H49.3C52.94 47.8602 55.89 44.9102 55.89 41.2602V23.5702ZM29.42 23.2602L42.02 31.5702L29.42 39.8802V23.2702V23.2602Z" fill="#160133"/>
</g>
<defs>
<clipPath id="clip0_142_3574">
<rect width="305.47" height="77.86" fill="white"/>
</clipPath>
</defs>
</svg>
